<svg xmlns="http://www.w3.org/2000/svg" width="45.753" height="45.753" viewBox="0 0 45.753 45.753">
  <path id="Icon_ionic-ios-paper" data-name="Icon ionic-ios-paper" d="M11.734,6.894V42.309a1.544,1.544,0,0,1-1.54,1.54h0a1.544,1.544,0,0,1-1.54-1.54v-31.9H6.894a3.516,3.516,0,0,0-3.519,3.519V45.608a3.516,3.516,0,0,0,3.519,3.519H45.729a3.4,3.4,0,0,0,3.4-3.4V6.894a3.516,3.516,0,0,0-3.519-3.519l-30.575.22A3.152,3.152,0,0,0,11.734,6.894Zm7.259,3.519h9.239a1.544,1.544,0,0,1,1.54,1.54h0a1.544,1.544,0,0,1-1.54,1.54H18.993a1.544,1.544,0,0,1-1.54-1.54h0A1.544,1.544,0,0,1,18.993,10.414Zm0,17.6H35.27a1.544,1.544,0,0,1,1.54,1.54h0a1.544,1.544,0,0,1-1.54,1.54H18.993a1.544,1.544,0,0,1-1.54-1.54h0A1.544,1.544,0,0,1,18.993,28.011ZM40.549,39.889H18.993a1.544,1.544,0,0,1-1.54-1.54h0a1.544,1.544,0,0,1,1.54-1.54H40.549a1.544,1.544,0,0,1,1.54,1.54h0A1.544,1.544,0,0,1,40.549,39.889Zm0-17.6H18.993a1.544,1.544,0,0,1-1.54-1.54h0a1.544,1.544,0,0,1,1.54-1.54H40.549a1.544,1.544,0,0,1,1.54,1.54h0A1.544,1.544,0,0,1,40.549,22.292Z" transform="translate(-3.375 -3.375)" fill="#fff"/>
</svg>
